<svg viewBox="0 0 79 32" fill="none" xmlns="http://www.w3.org/2000/svg"><g clip-path="url(#a)" fill="currentColor"><path d="M33.551 17.675c0 3.702-2.896 6.43-6.45 6.43-3.553 0-6.448-2.728-6.448-6.43 0-3.727 2.895-6.429 6.449-6.429 3.553 0 6.449 2.702 6.449 6.43zm-2.823 0c0-2.313-1.678-3.895-3.626-3.895s-3.626 1.582-3.626 3.895c0 2.29 1.678 3.896 3.626 3.896s3.626-1.609 3.626-3.896zM47.464 17.675c0 3.702-2.896 6.43-6.45 6.43-3.553 0-6.45-2.728-6.45-6.43 0-3.724 2.897-6.429 6.45-6.429 3.554 0 6.45 2.702 6.45 6.43zm-2.824 0c0-2.313-1.678-3.895-3.626-3.895s-3.626 1.582-3.626 3.895c0 2.29 1.678 3.896 3.626 3.896s3.626-1.609 3.626-3.896zM60.797 11.635v11.542c0 4.748-2.8 6.687-6.11 6.687-3.116 0-4.992-2.084-5.7-3.789l2.459-1.023c.438 1.047 1.51 2.281 3.238 2.281 2.118 0 3.431-1.307 3.431-3.768v-.924h-.098c-.632.78-1.85 1.46-3.386 1.46-3.214 0-6.16-2.8-6.16-6.402 0-3.63 2.946-6.453 6.16-6.453 1.534 0 2.751.682 3.386 1.438h.098v-1.046h2.682v-.003zm-2.482 6.064c0-2.264-1.51-3.92-3.431-3.92-1.948 0-3.58 1.656-3.58 3.92 0 2.24 1.632 3.872 3.58 3.872 1.921 0 3.431-1.632 3.431-3.872zM65.217 4.87v18.84h-2.754V4.87h2.754zM75.947 19.791l2.192 1.461c-.708 1.047-2.412 2.85-5.357 2.85-3.652 0-6.38-2.824-6.38-6.43 0-3.823 2.751-6.429 6.064-6.429 3.337 0 4.968 2.656 5.502 4.09l.292.73-8.594 3.56c.658 1.29 1.681 1.948 3.116 1.948 1.438 0 2.435-.707 3.165-1.78zm-6.745-2.313 5.745-2.385c-.316-.803-1.266-1.363-2.385-1.363-1.435 0-3.432 1.267-3.36 3.748zM10.229 16.003v-2.728h9.19c.09.476.137 1.038.137 1.647 0 2.046-.56 4.576-2.362 6.38-1.754 1.826-3.994 2.8-6.962 2.8C4.73 24.101.104 19.62.104 14.118c0-5.502 4.626-9.983 10.128-9.983 3.043 0 5.211 1.194 6.84 2.751l-1.924 1.925c-1.169-1.096-2.751-1.948-4.92-1.948-4.017 0-7.159 3.237-7.159 7.255 0 4.017 3.142 7.255 7.16 7.255 2.605 0 4.09-1.046 5.04-1.997.771-.771 1.278-1.873 1.478-3.377l-6.518.003z"/></g><defs><clipPath id="a"><path fill="#fff" d="M0 0h78.667v32H0z"/></clipPath></defs></svg>