<svg viewBox="0 0 106 28" fill="none" xmlns="http://www.w3.org/2000/svg"><g clip-path="url(#a)"><ellipse cx="14" cy="13.6" rx="12" ry="13" fill="currentColor"/><ellipse cx="11.271" cy="15.479" rx="7.25" ry="9.634" transform="rotate(-25 11.271 15.479)" fill="#F7F7F7"/><ellipse cx="21.022" cy="9.348" rx="2.988" ry="5.371" transform="rotate(-25 21.022 9.348)" fill="#F7F7F7"/><path d="M38.025 14.151c0 1.978.46 3.496 1.38 4.6.92 1.104 2.116 1.656 3.565 1.656 1.426 0 2.622-.552 3.542-1.656.92-1.104 1.403-2.622 1.403-4.6 0-1.955-.483-3.473-1.403-4.577s-2.116-1.656-3.542-1.656c-1.449 0-2.645.552-3.565 1.656-.92 1.104-1.38 2.622-1.38 4.577zm12.903 0c0 2.599-.736 4.692-2.162 6.279-1.449 1.587-3.381 2.369-5.796 2.369-2.438 0-4.37-.782-5.796-2.369-1.449-1.587-2.162-3.68-2.162-6.279 0-2.576.713-4.669 2.139-6.256 1.426-1.564 3.381-2.369 5.819-2.369s4.37.805 5.796 2.369c1.426 1.587 2.162 3.68 2.162 6.256zm10.15 8.349v-1.702c-.736 1.334-1.955 2.001-3.657 2.001-2.76 0-4.14-1.61-4.14-4.876v-7.797h2.737v7.13c0 .506.023.92.07 1.242.045.345.137.69.275 1.035s.391.598.713.782c.322.184.713.253 1.22.253 1.84 0 2.782-1.265 2.782-3.841v-6.601h2.737V22.5h-2.737zm6.21-12.374V6.86h2.737v3.266h2.483v1.978h-2.483v6.739c0 .644.091 1.058.298 1.265.184.207.576.299 1.174.299h.989V22.5H70.46c-1.31 0-2.162-.207-2.576-.644-.413-.437-.598-1.311-.598-2.599v-7.153h-1.84v-1.978h1.84zM77.45 5.825V22.5h-2.737V5.825h2.737zm3.08 0h2.737v2.76H80.53v-2.76zm0 4.301h2.737V22.5H80.53V10.126zm6.186 0v-.759c0-1.38.276-2.323.874-2.806.598-.483 1.656-.736 3.22-.736h1.08v2.093h-.781c-.69 0-1.15.115-1.357.299-.207.184-.3.598-.3 1.242v.667h2.439v1.978h-2.438V22.5h-2.737V12.104H84.99v-1.978h1.725zm17.907 6.969H95.4c.092 1.104.46 1.932 1.104 2.53.644.598 1.403.897 2.254.897 1.541 0 2.553-.575 3.036-1.725h2.691c-.322 1.104-.966 2.047-1.932 2.829s-2.208 1.173-3.68 1.173c-1.932 0-3.45-.621-4.577-1.886-1.127-1.265-1.679-2.829-1.679-4.692 0-1.84.552-3.381 1.702-4.577 1.15-1.196 2.6-1.794 4.37-1.794 1.886 0 3.358.69 4.462 2.07 1.104 1.38 1.587 3.105 1.472 5.175zm-5.934-5.106c-.782 0-1.495.253-2.139.759-.644.506-1.035 1.288-1.15 2.346h6.44c-.046-.92-.368-1.679-.966-2.254-.621-.552-1.357-.851-2.185-.851z" fill="currentColor"/></g><defs><clipPath id="a"><path fill="#fff" d="M0 0h106v28H0z"/></clipPath></defs></svg>