<svg viewBox="0 0 110 28" fill="none" xmlns="http://www.w3.org/2000/svg"><g clip-path="url(#a)"><path d="M11.2 11.165h5.6v5.6h-5.6v-5.6z" fill="#EC7C44"/><path opacity=".5" d="M16.8 11.165h5.6v5.6h-5.6v-5.6z" fill="#EC7C44"/><path opacity=".2" d="M22.4 11.165H28v5.6h-5.6v-5.6zM16.8 5.565h5.6v5.6h-5.6v-5.6zM16.8 16.765h5.6v5.6h-5.6v-5.6zM5.6 5.565h5.6v5.6H5.6v-5.6z" fill="#EC7C44"/><path opacity=".5" d="M11.2 5.565h5.6v5.6h-5.6v-5.6z" fill="#EC7C44"/><path opacity=".2" d="M5.6 16.765h5.6v5.6H5.6v-5.6zM11.2-.035h5.6v5.6h-5.6v-5.6z" fill="#EC7C44"/><path opacity=".5" d="M5.6 11.165h5.6v5.6H5.6v-5.6z" fill="#EC7C44"/><path opacity=".2" d="M0 11.165h5.6v5.6H0v-5.6z" fill="#EC7C44"/><path opacity=".5" d="M11.2 16.765h5.6v5.6h-5.6v-5.6z" fill="#EC7C44"/><path opacity=".2" d="M11.2 22.365h5.6v5.6h-5.6v-5.6z" fill="#EC7C44"/><path d="M40.6 5.79v14.214h8.395v2.461H37.679V5.79H40.6zM58.182 22.465v-1.702c-.736 1.334-1.955 2.001-3.657 2.001-2.76 0-4.14-1.61-4.14-4.876v-7.797h2.737v7.13c0 .506.023.92.069 1.242.046.345.138.69.276 1.035s.39.598.713.782c.322.184.713.253 1.219.253 1.84 0 2.783-1.265 2.783-3.84V10.09h2.737v12.374h-2.737zM66.737 15.887v6.578H64V10.091h2.737v1.725c.736-1.334 1.932-2 3.588-2 1.794 0 2.99.735 3.61 2.184 1.013-1.449 2.347-2.185 4.026-2.185 2.69 0 4.048 1.633 4.048 4.876v7.774h-2.737v-7.107c0-.506-.023-.92-.07-1.242a4.346 4.346 0 0 0-.252-1.012 1.594 1.594 0 0 0-.667-.782c-.322-.184-.713-.276-1.196-.276-1.817 0-2.714 1.288-2.714 3.841v6.578h-2.737v-7.107c0-.506-.023-.92-.07-1.242a4.346 4.346 0 0 0-.252-1.012 1.594 1.594 0 0 0-.667-.782c-.322-.184-.713-.276-1.196-.276-1.817 0-2.714 1.288-2.714 3.841zM86.867 16.301c0 1.38.3 2.415.92 3.151.621.736 1.403 1.081 2.346 1.081.92 0 1.702-.345 2.323-1.08.621-.737.943-1.772.943-3.152 0-1.357-.322-2.415-.943-3.15-.62-.737-1.403-1.105-2.323-1.105-.943 0-1.725.368-2.346 1.104-.62.736-.92 1.794-.92 3.151zm3.266-6.486c1.656 0 3.082.575 4.278 1.68 1.196 1.126 1.817 2.736 1.817 4.806 0 2.116-.62 3.703-1.817 4.807-1.196 1.104-2.622 1.656-4.278 1.656-1.656 0-3.105-.552-4.3-1.656-1.197-1.104-1.795-2.69-1.795-4.807 0-2.07.598-3.68 1.794-4.807 1.196-1.104 2.645-1.679 4.301-1.679zM108.204 13.472h-2.576c-.276-1.035-1.196-1.564-2.714-1.564-.644 0-1.173.138-1.633.391-.46.253-.667.575-.667.966 0 .782.552 1.265 1.656 1.472l1.748.345c.69.138 1.265.3 1.748.46.483.161.943.368 1.38.644.414.276.736.644.966 1.058.207.437.322.943.322 1.518 0 1.242-.506 2.231-1.518 2.944-1.012.713-2.254 1.058-3.726 1.058-1.495 0-2.714-.368-3.68-1.127-.966-.759-1.54-1.748-1.679-2.944h2.668c.253 1.334 1.173 2.001 2.783 2.001.736 0 1.334-.138 1.794-.437.46-.276.69-.667.69-1.173 0-.828-.713-1.403-2.139-1.702l-1.863-.368c-1.173-.23-2.093-.644-2.737-1.196-.667-.552-.989-1.357-.989-2.415s.483-1.909 1.472-2.576 2.185-1.012 3.565-1.012c1.265 0 2.369.322 3.335.943.943.644 1.541 1.541 1.794 2.714z" fill="currentColor"/></g><defs><clipPath id="a"><path fill="#fff" d="M0 0h110v28H0z"/></clipPath></defs></svg>