<svg width="107" height="28" viewBox="0 0 107 28" fill="none" xmlns="http://www.w3.org/2000/svg">
<g clip-path="url(#clip0_51_879)">
<ellipse cx="14" cy="13.6001" rx="12" ry="13" fill="#101010"/>
<ellipse cx="11.2712" cy="15.4788" rx="7.25" ry="9.63418" transform="rotate(-25 11.2712 15.4788)" fill="#F7F7F7"/>
<ellipse cx="21.022" cy="9.34828" rx="2.98824" ry="5.3707" transform="rotate(-25 21.022 9.34828)" fill="#F7F7F7"/>
<path d="M38.6 5.825V20.039H46.995V22.5H35.679V5.825H38.6ZM56.2049 17.624V16.681C54.2039 16.865 52.7779 17.141 51.9499 17.486C51.1219 17.831 50.7079 18.337 50.7079 19.027C50.7079 19.579 50.9149 19.993 51.3289 20.292C51.7429 20.614 52.2949 20.752 52.9849 20.752C53.9969 20.752 54.8019 20.499 55.3539 19.97C55.9059 19.464 56.2049 18.682 56.2049 17.624ZM52.3869 22.799C51.0299 22.799 49.9259 22.477 49.0749 21.787C48.2239 21.12 47.8099 20.223 47.8099 19.096C47.8099 18.59 47.9019 18.153 48.0859 17.739C48.2699 17.348 48.5689 17.003 48.9829 16.704C49.3739 16.428 49.8109 16.175 50.2709 15.968C50.7309 15.761 51.2829 15.577 51.9729 15.416C52.6629 15.278 53.3069 15.14 53.9279 15.048C54.5489 14.956 55.2849 14.864 56.1359 14.772V14.542C56.1359 12.702 55.2619 11.782 53.5599 11.782C52.8239 11.782 52.2489 11.989 51.7889 12.357C51.3289 12.748 51.0989 13.3 51.0759 14.013H48.3849C48.4769 12.771 49.0059 11.736 49.9719 10.954C50.9379 10.172 52.1569 9.758 53.6519 9.758C55.2619 9.758 56.5269 10.195 57.4929 11.023C58.4359 11.851 58.8959 13.208 58.8729 15.071C58.8729 15.232 58.8499 15.692 58.8499 16.474C58.8269 17.256 58.8269 17.854 58.8269 18.268C58.8269 20.108 58.9419 21.511 59.1949 22.5H56.6879C56.5499 21.833 56.4809 21.281 56.4579 20.821C55.6759 22.155 54.3189 22.799 52.3869 22.799ZM64.2626 16.313C64.2626 17.693 64.5616 18.728 65.1596 19.464C65.7576 20.2 66.5166 20.568 67.4596 20.568C68.3796 20.568 69.1386 20.2 69.7136 19.418C70.2886 18.659 70.5876 17.624 70.5876 16.313C70.5876 15.048 70.2886 14.036 69.7136 13.254C69.1156 12.472 68.3796 12.081 67.4596 12.081C66.5166 12.081 65.7576 12.449 65.1596 13.185C64.5616 13.921 64.2626 14.956 64.2626 16.313ZM61.6406 5.825H64.3776V11.782C65.1596 10.494 66.3786 9.85 68.0576 9.85C69.5756 9.85 70.8406 10.448 71.8756 11.644C72.9106 12.84 73.4396 14.381 73.4396 16.313C73.4396 18.268 72.9106 19.832 71.8756 21.028C70.8406 22.224 69.5756 22.799 68.0576 22.799C66.3786 22.799 65.1596 22.155 64.3776 20.867V22.5H61.6406V5.825ZM86.9915 17.095H77.7685C77.8605 18.199 78.2285 19.027 78.8725 19.625C79.5165 20.223 80.2755 20.522 81.1265 20.522C82.6675 20.522 83.6795 19.947 84.1625 18.797H86.8535C86.5315 19.901 85.8875 20.844 84.9215 21.626C83.9555 22.408 82.7135 22.799 81.2415 22.799C79.3095 22.799 77.7915 22.178 76.6645 20.913C75.5375 19.648 74.9855 18.084 74.9855 16.221C74.9855 14.381 75.5375 12.84 76.6875 11.644C77.8375 10.448 79.2865 9.85 81.0575 9.85C82.9435 9.85 84.4155 10.54 85.5195 11.92C86.6235 13.3 87.1065 15.025 86.9915 17.095ZM81.0575 11.989C80.2755 11.989 79.5625 12.242 78.9185 12.748C78.2745 13.254 77.8835 14.036 77.7685 15.094H84.2085C84.1625 14.174 83.8405 13.415 83.2425 12.84C82.6215 12.288 81.8855 11.989 81.0575 11.989ZM91.9821 5.825V22.5H89.2451V5.825H91.9821ZM102.721 17.624V16.681C100.72 16.865 99.2945 17.141 98.4665 17.486C97.6385 17.831 97.2245 18.337 97.2245 19.027C97.2245 19.579 97.4315 19.993 97.8455 20.292C98.2595 20.614 98.8115 20.752 99.5015 20.752C100.513 20.752 101.318 20.499 101.87 19.97C102.422 19.464 102.721 18.682 102.721 17.624ZM98.9035 22.799C97.5465 22.799 96.4425 22.477 95.5915 21.787C94.7405 21.12 94.3265 20.223 94.3265 19.096C94.3265 18.59 94.4185 18.153 94.6025 17.739C94.7865 17.348 95.0855 17.003 95.4995 16.704C95.8905 16.428 96.3275 16.175 96.7875 15.968C97.2475 15.761 97.7995 15.577 98.4895 15.416C99.1795 15.278 99.8235 15.14 100.444 15.048C101.065 14.956 101.801 14.864 102.652 14.772V14.542C102.652 12.702 101.778 11.782 100.076 11.782C99.3405 11.782 98.7655 11.989 98.3055 12.357C97.8455 12.748 97.6155 13.3 97.5925 14.013H94.9015C94.9935 12.771 95.5225 11.736 96.4885 10.954C97.4545 10.172 98.6735 9.758 100.168 9.758C101.778 9.758 103.043 10.195 104.009 11.023C104.952 11.851 105.412 13.208 105.389 15.071C105.389 15.232 105.366 15.692 105.366 16.474C105.343 17.256 105.343 17.854 105.343 18.268C105.343 20.108 105.458 21.511 105.711 22.5H103.204C103.066 21.833 102.997 21.281 102.974 20.821C102.192 22.155 100.835 22.799 98.9035 22.799Z" fill="#101010"/>
</g>
<defs>
<clipPath id="clip0_51_879">
<rect width="107" height="28" fill="white"/>
</clipPath>
</defs>
</svg>
