<svg viewBox="0 0 48 48" fill="none" xmlns="http://www.w3.org/2000/svg"><path d="M22.2817 31.4111C21.8833 31.4111 21.543 31.234 21.2607 30.8799L16.9609 25.501C16.8558 25.3737 16.7783 25.2492 16.7285 25.1274C16.6842 25.0057 16.6621 24.8812 16.6621 24.7539C16.6621 24.4661 16.7562 24.2282 16.9443 24.04C17.138 23.8519 17.3815 23.7578 17.6748 23.7578C18.0124 23.7578 18.2974 23.91 18.5298 24.2144L22.2485 28.9873L29.4536 17.5405C29.5809 17.3468 29.7109 17.2113 29.8438 17.1338C29.9766 17.0508 30.1481 17.0093 30.3584 17.0093C30.6462 17.0093 30.8813 17.1006 31.064 17.2832C31.2466 17.4603 31.3379 17.6927 31.3379 17.9805C31.3379 18.0967 31.3185 18.2157 31.2798 18.3374C31.241 18.4536 31.1802 18.5781 31.0972 18.7109L23.2944 30.8716C23.0509 31.2313 22.7134 31.4111 22.2817 31.4111Z" fill="currentColor"/></svg>
