<svg viewBox="0 0 91 32" fill="none" xmlns="http://www.w3.org/2000/svg"><g clip-path="url(#a)" fill="currentColor"><path d="M33.826 7.016h3.343L42.854 17.3 48.54 7.016h3.27v16.899h-2.727V10.963l-4.985 8.968h-2.56l-4.984-8.968v12.952h-2.728v-16.9zM60.61 24.216c-1.263 0-2.373-.28-3.33-.838a5.868 5.868 0 0 1-2.24-2.324c-.535-.99-.803-2.125-.803-3.404 0-1.295.262-2.442.785-3.44a5.858 5.858 0 0 1 2.179-2.342c.93-.563 1.997-.845 3.204-.845 1.2 0 2.231.284 3.097.851.864.567 1.53 1.362 1.997 2.384.467 1.022.7 2.221.7 3.597v.748h-9.258c.17 1.03.586 1.841 1.25 2.433.663.591 1.502.887 2.516.887.813 0 1.513-.12 2.1-.362a5.345 5.345 0 0 0 1.654-1.099l1.449 1.775c-1.441 1.32-3.207 1.98-5.3 1.98zm1.992-10.024c-.571-.584-1.32-.875-2.245-.876-.901 0-1.656.298-2.263.894-.608.595-.992 1.396-1.153 2.402h6.639c-.08-1.03-.406-1.837-.978-2.42zM69.507 13.558h-2.511v-2.233h2.51V7.63h2.632v3.694h3.814v2.233h-3.814v5.661c0 .942.16 1.613.483 2.016.322.402.873.604 1.654.603.345 0 .64-.014.88-.042.242-.028.508-.066.797-.114v2.208a7.925 7.925 0 0 1-2.185.302c-2.84 0-4.26-1.553-4.26-4.659v-5.975zM89.665 23.915H87.08v-1.763a4.667 4.667 0 0 1-1.75 1.527c-.708.358-1.513.537-2.414.537-1.11 0-2.094-.283-2.951-.85-.857-.568-1.531-1.349-2.022-2.342-.49-.994-.736-2.13-.736-3.41 0-1.288.25-2.426.748-3.416.499-.99 1.189-1.767 2.07-2.33.881-.563 1.893-.845 3.036-.845.86 0 1.633.167 2.317.501.675.327 1.26.814 1.702 1.418v-1.617h2.584v12.59zm-2.632-8.184a3.59 3.59 0 0 0-1.334-1.696c-.607-.415-1.31-.622-2.106-.622-1.127 0-2.024.378-2.692 1.135-.668.756-1.002 1.778-1.002 3.066 0 1.296.322 2.322.966 3.078.644.756 1.517 1.134 2.62 1.134.812 0 1.536-.209 2.172-.627a3.546 3.546 0 0 0 1.376-1.69V15.73zM20.645 6.445c-2.194 0-3.908 1.652-5.46 3.75-2.134-2.716-3.918-3.75-6.053-3.75-4.352 0-7.687 5.664-7.687 11.66 0 3.751 1.815 6.117 4.855 6.117 2.188 0 3.762-1.031 6.56-5.922l1.968-3.478c.281.454.577.943.888 1.468l1.312 2.207c2.556 4.276 3.98 5.725 6.56 5.725 2.961 0 4.61-2.398 4.61-6.228 0-6.277-3.41-11.55-7.553-11.55zm-9.919 10.531c-2.268 3.556-3.053 4.353-4.315 4.353-1.3 0-2.072-1.141-2.072-3.176 0-4.352 2.17-8.803 4.757-8.803 1.4 0 2.571.81 4.364 3.377-1.702 2.611-2.734 4.25-2.734 4.25zm8.56-.447-1.568-2.616a54.393 54.393 0 0 0-1.224-1.907c1.414-2.182 2.58-3.269 3.967-3.269 2.881 0 5.186 4.242 5.186 9.453 0 1.986-.65 3.139-1.998 3.139-1.292 0-1.91-.853-4.362-4.8z"/></g><defs><clipPath id="a"><path fill="#fff" transform="translate(.333)" d="M0 0h90.442v32H0z"/></clipPath></defs></svg>