<svg viewBox="0 0 95 28" fill="none" xmlns="http://www.w3.org/2000/svg">
<path d="M18.1612 5.59979V22.3998H15.2445V9.21646H15.2056L9.99451 22.3998H8.05006L2.72228 9.21646H2.68339V22.3998H6.10352e-05V5.59979H4.20006L9.02228 18.0442H9.10006L14.1945 5.59979H18.1612ZM20.5723 6.88312C20.5723 6.41646 20.7278 6.02757 21.0778 5.71646C21.4278 5.40535 21.8167 5.24979 22.2834 5.24979C22.7889 5.24979 23.2167 5.40535 23.5278 5.71646C23.8389 6.02757 24.0334 6.41646 24.0334 6.88312C24.0334 7.34979 23.8778 7.73868 23.5278 8.04979C23.1778 8.3609 22.7889 8.51646 22.2834 8.51646C21.7778 8.51646 21.3889 8.3609 21.0778 8.04979C20.7667 7.69979 20.5723 7.3109 20.5723 6.88312ZM23.7223 10.3442V22.3998H20.8834V10.3442H23.7223ZM32.3167 20.3387C32.7445 20.3387 33.2112 20.2609 33.7167 20.0276C34.2223 19.8331 34.6889 19.5609 35.1167 19.2498V21.8942C34.6501 22.1665 34.1445 22.3609 33.5612 22.4776C32.9778 22.5942 32.3556 22.672 31.6556 22.672C29.8667 22.672 28.4278 22.1276 27.3389 20.9998C26.2112 19.872 25.6667 18.4331 25.6667 16.722C25.6667 14.7776 26.2501 13.1831 27.3778 11.9387C28.5056 10.6942 30.1001 10.072 32.2001 10.072C32.7445 10.072 33.289 10.1498 33.7945 10.2665C34.339 10.3831 34.7667 10.5776 35.0778 10.7331V13.4553C34.6501 13.1442 34.1834 12.872 33.7556 12.7165C33.2889 12.5609 32.8223 12.4442 32.3556 12.4442C31.2278 12.4442 30.3334 12.7942 29.6334 13.5331C28.9334 14.272 28.6223 15.2442 28.6223 16.4887C28.6223 17.6942 28.9723 18.6665 29.6334 19.3276C30.2945 19.9887 31.1889 20.3387 32.3167 20.3387ZM43.1667 10.1498C43.4001 10.1498 43.5945 10.1498 43.7889 10.1887C43.9834 10.2276 44.139 10.2665 44.2556 10.3053V13.1831C44.1001 13.0665 43.9056 12.9498 43.5945 12.872C43.2834 12.7942 42.9723 12.7165 42.5445 12.7165C41.8445 12.7165 41.2612 13.0276 40.7945 13.6109C40.3278 14.1942 40.0556 15.0887 40.0556 16.3331V22.3998H37.2167V10.3442H40.0556V12.2498H40.0945C40.3667 11.5887 40.7556 11.0831 41.2612 10.6942C41.8056 10.3442 42.4278 10.1498 43.1667 10.1498ZM44.4112 16.5665C44.4112 14.5831 44.9945 12.9887 46.0834 11.822C47.2112 10.6553 48.7667 10.072 50.7501 10.072C52.6167 10.072 54.0945 10.6165 55.1445 11.7442C56.1945 12.872 56.7389 14.3887 56.7389 16.2942C56.7389 18.2387 56.1556 19.7942 55.0667 20.9609C53.9389 22.1276 52.4223 22.7109 50.4778 22.7109C48.6112 22.7109 47.1334 22.1665 46.0445 21.0776C44.9556 19.9498 44.4112 18.4331 44.4112 16.5665ZM47.3667 16.4498C47.3667 17.6942 47.6389 18.6665 48.2223 19.3276C48.8056 19.9887 49.6223 20.3387 50.6723 20.3387C51.6834 20.3387 52.5001 20.0276 53.0445 19.3276C53.589 18.6665 53.8612 17.6942 53.8612 16.372C53.8612 15.0887 53.589 14.1165 53.0445 13.4165C52.5001 12.7553 51.6834 12.4053 50.7112 12.4053C49.6612 12.4053 48.8834 12.7553 48.3001 13.4553C47.6389 14.1942 47.3667 15.1665 47.3667 16.4498ZM60.9778 13.5331C60.9778 13.922 61.0945 14.272 61.3667 14.5053C61.6389 14.7387 62.1834 15.0109 63.0778 15.3609C64.2056 15.8276 65.0223 16.3331 65.4501 16.8776C65.9167 17.4609 66.1501 18.122 66.1501 18.9387C66.1501 20.0665 65.7223 20.9609 64.8278 21.6609C63.9723 22.3609 62.7667 22.672 61.2889 22.672C60.7834 22.672 60.2389 22.5942 59.6167 22.4776C58.9945 22.3609 58.4889 22.2053 58.0612 22.0109V19.2109C58.5667 19.5609 59.1501 19.872 59.7334 20.0665C60.3167 20.2609 60.8612 20.3776 61.3667 20.3776C61.9889 20.3776 62.4945 20.2998 62.7667 20.1053C63.0778 19.9109 63.2334 19.6387 63.2334 19.2109C63.2334 18.822 63.0778 18.5109 62.7667 18.1998C62.4556 17.9276 61.8334 17.6165 60.9778 17.2665C59.9278 16.8387 59.1889 16.3331 58.7612 15.7887C58.3334 15.2442 58.1001 14.5442 58.1001 13.6887C58.1001 12.5998 58.5278 11.7053 59.3834 11.0053C60.2389 10.3053 61.3667 9.95535 62.7278 9.95535C63.1556 9.95535 63.6223 9.99424 64.1278 10.1109C64.6334 10.2276 65.1001 10.3442 65.4501 10.4609V13.222C65.0612 12.9887 64.6334 12.7553 64.1278 12.5609C63.6223 12.3665 63.1167 12.2887 62.6501 12.2887C62.1056 12.2887 61.6778 12.4053 61.4056 12.5998C61.1334 12.872 60.9778 13.1442 60.9778 13.5331ZM67.3556 16.5665C67.3556 14.5831 67.9389 12.9887 69.0278 11.822C70.1556 10.6553 71.7112 10.072 73.6945 10.072C75.5612 10.072 77.0389 10.6165 78.0889 11.7442C79.1389 12.872 79.6834 14.3887 79.6834 16.2942C79.6834 18.2387 79.1001 19.7942 78.0112 20.9609C76.8834 22.1276 75.3667 22.7109 73.4223 22.7109C71.5556 22.7109 70.0778 22.1665 68.989 21.0776C67.9389 19.9498 67.3556 18.4331 67.3556 16.5665ZM70.3112 16.4498C70.3112 17.6942 70.5834 18.6665 71.1667 19.3276C71.7501 19.9887 72.5667 20.3387 73.6167 20.3387C74.6278 20.3387 75.4445 20.0276 75.989 19.3276C76.5334 18.6665 76.8056 17.6942 76.8056 16.372C76.8056 15.0887 76.5334 14.1165 75.989 13.4165C75.4445 12.7553 74.6278 12.4053 73.6556 12.4053C72.6056 12.4053 71.8278 12.7553 71.2445 13.4553C70.6223 14.1942 70.3112 15.1665 70.3112 16.4498ZM89.1334 12.6776H84.8945V22.3998H82.0167V12.6776H79.9945V10.3442H82.0167V8.67201C82.0167 7.42757 82.4445 6.37757 83.2612 5.5609C84.0778 4.74424 85.1278 4.35535 86.4112 4.35535C86.7612 4.35535 87.0723 4.39424 87.3445 4.39424C87.6167 4.39424 87.8501 4.47201 88.0445 4.54979V6.99979C87.9667 6.9609 87.7723 6.88312 87.5389 6.80535C87.3056 6.72757 87.0334 6.68868 86.7223 6.68868C86.139 6.68868 85.6723 6.88312 85.3612 7.23312C85.0501 7.58312 84.8945 8.16646 84.8945 8.86646V10.3053H89.1334V7.58312L91.9723 6.72757V10.3053H94.8501V12.6387H91.9723V18.2776C91.9723 19.0165 92.1278 19.522 92.3612 19.8331C92.6334 20.1442 93.0612 20.2998 93.6445 20.2998C93.8001 20.2998 93.9945 20.2609 94.2278 20.1831C94.4612 20.1053 94.6556 20.0276 94.8112 19.9109V22.2442C94.6167 22.3609 94.3445 22.4387 93.9167 22.5165C93.489 22.5942 93.1001 22.6331 92.6723 22.6331C91.4667 22.6331 90.5723 22.322 89.9889 21.6998C89.4056 21.0776 89.0945 20.1053 89.0945 18.822L89.1334 12.6776Z" fill="#E4E4E4" fill-opacity="0.5"/>
</svg>
