<svg viewBox="0 0 82 32" fill="none" xmlns="http://www.w3.org/2000/svg"><path d="M1.333 15.384c0 5.232 3.36 8.88 8.016 8.88 4.656 0 8.016-3.648 8.016-8.88 0-5.232-3.36-8.88-8.016-8.88-4.656 0-8.016 3.648-8.016 8.88zm12.96 0c0 3.744-2.04 6.168-4.944 6.168s-4.944-2.424-4.944-6.168 2.04-6.168 4.944-6.168 4.944 2.424 4.944 6.168zM26.016 24.264c3.528 0 5.544-2.976 5.544-6.552 0-3.576-2.016-6.552-5.544-6.552-1.632 0-2.832.648-3.624 1.584V11.4h-2.88v16.92h2.88v-5.64c.792.936 1.992 1.584 3.624 1.584zm-3.696-6.912c0-2.376 1.344-3.672 3.12-3.672 2.088 0 3.216 1.632 3.216 4.032 0 2.4-1.128 4.032-3.216 4.032-1.776 0-3.12-1.32-3.12-3.648v-.744zM39.354 24.264c2.52 0 4.512-1.32 5.4-3.528l-2.472-.936c-.384 1.296-1.512 2.016-2.928 2.016-1.848 0-3.144-1.32-3.36-3.48h8.832v-.96c0-3.456-1.944-6.216-5.592-6.216-3.648 0-6 2.856-6 6.552 0 3.888 2.52 6.552 6.12 6.552zm-.144-10.68c1.824 0 2.688 1.2 2.712 2.592h-5.784c.432-1.704 1.584-2.592 3.072-2.592zM46.987 24h2.88v-7.392c0-1.8 1.32-2.76 2.616-2.76 1.584 0 2.208 1.128 2.208 2.688V24h2.88v-8.304c0-2.712-1.584-4.536-4.224-4.536-1.632 0-2.76.744-3.48 1.584V11.4h-2.88V24zM66.006 6.768 59.478 24h3.048l1.464-3.936h7.44L72.918 24h3.096L69.486 6.768h-3.48zm1.68 3.408 2.736 7.2h-5.424l2.688-7.2zM80.958 6.818h-3.072V24.05h3.072V6.818z" fill="currentColor"/></svg>